<svg xmlns="http://www.w3.org/2000/svg" viewBox="0 0 200 178">
  <path fill="white" d="M56.5,46.4 L57.0,46.4 L58.5,46.1 L59.6,45.8 L60.8,45.3 L62.8,44.3 L63.5,44.1 L64.4,43.6 L64.9,43.3 L64.6,42.3 L64.3,41.6 L63.6,40.9 L64.7,40.2 L65.0,40.1 L65.0,39.9 L65.1,40.0 L65.2,39.8 L65.1,39.5 L66.4,38.3 L67.5,38.5 L67.9,38.7 L68.7,38.5 L69.0,38.7 L69.0,39.2 L69.1,39.3 L70.4,39.4 L71.6,39.1 L72.7,38.6 L73.0,38.4 L73.1,38.2 L72.9,37.8 L73.0,37.7 L73.2,37.9 L73.5,37.9 L74.1,37.9 L74.2,37.8 L74.5,38.0 L74.7,37.9 L76.0,36.9 L77.2,37.3 L77.1,37.6 L77.2,37.8 L77.3,37.9 L77.4,38.0 L78.6,38.3 L79.1,38.8 L79.4,39.7 L79.2,40.7 L79.4,41.2 L79.2,41.0 L79.4,41.8 L81.0,42.7 L82.5,43.0 L83.3,43.0 L84.8,42.7 L86.0,42.3 L86.3,41.9 L87.6,42.2 L87.6,42.3 L87.7,43.1 L87.7,44.1 L87.5,44.4 L87.7,44.8 L88.9,45.7 L90.3,46.3 L90.5,46.4 L91.6,47.1 L92.2,47.3 L93.2,47.8 L95.3,48.1 L95.9,48.0 L96.0,48.1 L96.0,48.7 L96.7,48.9 L98.0,49.1 L98.7,49.0 L100.5,48.8 L101.3,48.6 L102.1,48.5 L103.2,48.2 L105.4,47.4 L109.3,46.2 L109.6,46.2 L111.1,45.9 L111.9,45.7 L112.0,45.7 L112.4,46.1 L113.6,46.7 L114.0,46.7 L115.6,46.9 L116.8,46.8 L117.5,46.4 L117.6,46.3 L118.8,46.8 L119.0,46.7 L119.3,46.7 L120.1,46.9 L121.4,47.0 L121.7,47.1 L122.8,47.2 L123.1,47.2 L124.5,47.3 L125.8,47.2 L127.2,46.7 L127.7,46.7 L128.0,46.9 L128.8,46.9 L129.7,46.5 L129.9,46.5 L130.2,46.4 L131.1,45.8 L131.9,45.7 L132.2,45.7 L132.3,45.9 L132.8,46.0 L133.9,46.0 L136.6,45.5 L137.4,45.0 L137.9,44.7 L138.2,44.7 L138.6,44.8 L139.3,44.8 L139.5,44.7 L140.1,44.5 L140.5,44.2 L141.2,44.2 L141.5,44.2 L142.2,43.8 L143.4,43.2 L144.4,42.3 L145.5,41.3 L147.2,39.6 L147.4,39.5 L148.1,40.0 L149.0,40.2 L149.1,40.2 L149.4,40.2 L150.4,40.0 L151.1,39.8 L151.7,39.7 L152.7,39.4 L153.5,39.5 L155.0,38.7 L155.7,38.3 L157.2,39.3 L157.8,39.9 L158.0,40.0 L158.3,40.2 L160.3,40.4 L162.1,40.3 L162.5,41.2 L163.2,41.5 L163.4,41.7 L163.9,41.8 L164.1,41.8 L164.2,41.8 L164.8,41.7 L165.4,41.4 L166.4,40.9 L167.1,40.7 L168.4,40.1 L168.8,39.8 L169.1,39.5 L170.0,38.8 L170.8,37.7 L171.4,36.6 L171.7,35.8 L171.6,35.7 L171.4,35.5 L171.5,35.0 L171.4,34.7 L171.2,34.6 L171.2,34.4 L171.6,34.6 L172.3,35.6 L171.9,36.5 L171.8,36.6 L171.8,37.2 L172.4,37.4 L174.2,37.6 L175.4,37.3 L177.4,37.0 L179.0,36.5 L180.8,35.9 L182.4,35.1 L183.2,34.5 L184.4,33.8 L185.4,33.1 L186.6,32.9 L187.3,33.1 L188.2,33.7 L189.9,34.3 L190.8,34.3 L191.2,34.3 L191.8,34.4 L192.0,34.6 L190.7,35.0 L188.8,35.5 L188.5,35.7 L187.4,37.9 L187.3,38.3 L187.5,38.5 L187.7,38.2 L187.5,38.0 L188.1,38.0 L188.2,38.2 L187.1,39.3 L185.4,41.8 L183.9,44.3 L183.5,44.6 L183.3,45.0 L182.4,45.7 L181.6,46.4 L181.5,46.6 L180.9,47.3 L180.4,47.8 L180.4,47.9 L178.3,50.1 L177.6,50.7 L177.0,51.4 L176.8,51.7 L176.9,51.8 L176.8,52.0 L176.4,52.3 L175.1,53.4 L174.8,53.7 L174.6,54.1 L174.4,54.4 L174.4,54.5 L174.6,54.6 L173.7,55.3 L173.1,55.8 L173.0,55.9 L173.1,56.1 L173.2,56.2 L172.7,56.8 L171.8,57.7 L170.2,59.7 L169.9,60.4 L169.9,60.5 L170.3,61.3 L170.5,61.9 L170.4,62.2 L169.8,63.1 L169.6,63.5 L169.5,64.2 L169.6,64.4 L169.3,64.9 L168.6,65.3 L168.3,66.7 L168.5,67.9 L168.5,68.4 L168.1,68.5 L167.3,69.2 L167.1,69.3 L166.8,69.9 L165.9,70.4 L165.5,70.6 L165.5,70.9 L164.6,72.0 L164.7,72.6 L164.7,72.7 L164.6,72.0 L164.3,72.5 L164.0,73.0 L164.0,74.1 L164.2,75.7 L164.2,78.9 L164.4,80.1 L164.7,81.0 L165.0,81.3 L167.0,81.9 L167.8,82.4 L168.0,82.3 L168.1,82.2 L168.8,82.4 L168.9,82.5 L168.9,82.7 L169.4,82.7 L169.5,82.3 L170.0,82.1 L171.3,83.5 L171.8,84.0 L171.8,84.3 L171.9,84.4 L171.9,84.4 L171.9,84.5 L172.5,84.6 L172.3,84.7 L172.2,84.8 L172.3,85.0 L171.9,85.1 L171.5,84.8 L171.5,84.7 L171.1,84.6 L171.0,84.6 L170.8,84.8 L170.8,85.6 L171.0,85.7 L170.8,85.9 L170.5,85.6 L170.5,85.4 L170.4,84.6 L170.0,84.5 L169.9,84.6 L169.9,84.7 L169.0,84.9 L169.4,85.4 L169.3,85.6 L168.8,85.9 L169.0,87.1 L169.7,87.8 L170.1,89.1 L170.6,89.1 L170.8,89.1 L171.0,88.8 L171.3,88.7 L171.8,89.3 L171.5,89.3 L171.3,89.2 L171.1,89.0 L170.9,89.1 L170.7,89.3 L170.6,89.7 L171.3,90.6 L171.7,90.8 L172.5,91.1 L172.6,91.2 L173.1,91.3 L173.7,91.1 L174.4,91.3 L174.6,92.6 L174.5,92.6 L174.3,93.2 L174.4,93.9 L174.1,93.5 L173.6,93.3 L173.2,93.6 L173.1,94.0 L173.6,94.8 L174.0,94.9 L174.2,94.8 L174.2,94.7 L175.2,94.6 L176.2,95.8 L176.3,96.4 L175.3,96.3 L174.8,95.7 L174.5,95.7 L174.2,96.0 L173.7,96.1 L173.5,96.1 L172.9,96.5 L172.9,97.0 L172.7,97.7 L172.5,97.8 L171.1,97.9 L170.8,98.2 L170.4,98.3 L170.3,98.2 L170.0,98.3 L169.4,98.9 L169.0,99.1 L168.5,99.6 L168.5,99.8 L168.1,100.3 L167.6,100.4 L167.4,100.6 L166.9,101.4 L166.5,102.4 L166.6,102.6 L166.5,103.0 L166.1,103.0 L165.4,103.6 L165.0,104.7 L164.8,106.1 L164.4,106.3 L164.4,107.1 L164.6,107.4 L164.7,107.8 L164.9,108.4 L165.4,108.9 L165.7,109.0 L165.5,109.2 L165.7,109.5 L165.8,110.4 L165.9,111.0 L166.0,111.2 L166.4,111.6 L166.3,112.7 L166.2,112.7 L166.0,112.5 L165.6,112.3 L165.1,112.6 L164.3,113.3 L163.7,113.7 L163.6,113.4 L163.2,113.1 L162.7,112.9 L162.3,112.3 L162.3,112.1 L161.9,111.7 L161.1,111.2 L160.3,111.0 L159.9,111.0 L159.4,111.1 L157.5,111.3 L156.8,110.8 L155.4,110.0 L154.6,109.7 L153.5,109.6 L152.6,109.7 L151.6,110.1 L151.9,110.7 L151.9,110.7 L151.5,110.7 L150.8,110.3 L150.4,110.4 L149.9,110.7 L149.4,110.9 L148.9,110.9 L148.1,110.6 L147.8,110.6 L147.7,110.4 L147.7,110.4 L147.5,110.2 L147.2,110.1 L145.7,110.1 L145.4,110.2 L145.2,110.3 L144.3,110.0 L144.2,109.9 L143.8,109.4 L143.5,109.0 L142.8,108.7 L142.2,108.4 L142.0,108.2 L141.0,107.9 L140.0,107.7 L139.8,107.6 L139.6,107.4 L137.8,107.1 L137.3,107.1 L137.2,107.1 L136.6,107.2 L135.9,106.8 L135.2,106.8 L134.7,106.8 L133.3,105.4 L133.0,105.2 L133.1,104.8 L132.9,104.3 L132.7,104.1 L132.5,103.2 L132.3,102.8 L131.9,102.2 L131.5,101.8 L131.0,100.8 L130.0,99.5 L129.3,98.6 L128.1,97.3 L126.5,95.9 L124.6,94.4 L122.4,93.3 L122.2,93.2 L120.3,92.5 L118.1,91.8 L116.1,91.4 L114.3,91.1 L112.2,91.3 L111.6,91.2 L109.3,91.1 L108.9,91.2 L107.7,91.7 L106.9,91.7 L106.5,91.6 L105.9,91.7 L103.4,91.0 L103.1,90.3 L102.4,89.7 L102.0,89.5 L101.4,89.4 L100.3,89.4 L99.9,89.3 L97.6,88.8 L97.4,88.6 L97.0,88.2 L96.7,88.1 L96.5,88.1 L95.1,87.5 L93.9,87.0 L93.3,86.0 L92.7,85.4 L92.1,85.0 L91.9,85.0 L90.4,83.9 L89.5,83.4 L88.8,82.8 L88.4,82.5 L88.2,82.5 L86.9,82.5 L86.0,82.2 L85.6,82.3 L84.0,82.1 L83.2,82.0 L82.1,81.4 L81.9,81.2 L81.3,80.5 L80.9,80.2 L80.5,80.2 L80.0,79.8 L79.4,79.5 L78.4,78.9 L78.0,78.9 L77.8,78.9 L76.8,78.6 L76.4,78.1 L75.9,77.7 L75.4,77.4 L75.1,77.4 L74.7,77.4 L74.3,76.9 L73.8,76.0 L72.9,75.3 L72.3,74.7 L71.7,74.0 L71.3,73.8 L70.8,73.8 L70.6,73.6 L70.4,73.2 L69.5,72.5 L68.7,72.2 L67.6,72.3 L67.5,72.4 L66.9,72.2 L64.9,71.8 L63.5,71.9 L63.0,72.2 L61.7,72.1 L61.6,72.0 L61.8,71.7 L61.6,71.4 L60.6,70.2 L60.4,70.0 L60.1,69.8 L59.2,69.0 L58.2,68.5 L56.6,68.3 L56.6,68.5 L55.9,68.3 L54.6,68.1 L53.9,68.0 L53.6,68.1 L51.7,68.1 L47.8,68.6 L46.5,68.9 L44.9,69.1 L43.7,68.3 L43.5,67.9 L42.7,67.1 L42.2,66.3 L42.0,65.6 L41.8,65.3 L40.8,64.7 L39.7,64.2 L39.6,64.2 L39.2,64.1 L38.9,64.1 L38.3,64.3 L37.2,64.1 L36.8,63.7 L35.9,62.8 L35.6,62.7 L34.9,62.1 L35.0,61.9 L35.1,61.8 L35.0,60.4 L34.5,59.5 L34.3,59.2 L34.2,58.9 L34.1,58.7 L33.5,57.9 L32.8,57.1 L34.4,56.6 L34.8,55.7 L35.1,54.9 L35.2,54.6 L35.6,53.7 L35.5,53.4 L34.7,52.9 L34.5,52.0 L34.7,51.8 L35.2,51.1 L36.3,49.3 L36.1,48.9 L36.1,48.4 L36.8,47.5 L37.3,47.1 L36.2,47.0 L35.9,46.8 L36.9,46.8 L37.7,46.3 L39.0,45.1 L39.8,44.3 L40.9,44.4 L41.4,44.5 L41.8,44.4 L43.2,43.9 L43.6,43.5 L44.3,43.2 L44.4,43.0 L44.2,42.8 L44.1,42.7 L44.4,42.1 L44.7,42.1 L45.0,42.1 L45.6,42.5 L46.7,42.3 L47.1,42.0 L48.0,41.0 L47.0,39.3 L47.1,38.8 L47.5,38.5 L47.7,38.4 L47.9,38.4 L47.8,38.7 L47.8,38.9 L47.8,38.9 L47.8,38.9 L47.9,38.8 L47.9,38.9 L48.1,39.1 L48.3,39.1 L48.8,38.9 L49.7,39.2 L49.7,39.4 L49.5,39.7 L49.5,40.0 L49.9,40.3 L50.7,41.4 L51.0,42.7 L51.9,43.7 L52.0,43.8 L53.4,44.9 L54.2,45.1 L54.7,45.5 L54.7,45.6 L54.6,45.8 L55.0,46.2 L56.4,46.4 L56.5,46.4 Z"/>
  <path fill="white" d="M37.8,44.5 L37.8,44.5 L37.8,44.5 L37.8,44.5 L37.8,44.5 L37.8,44.5 L37.8,44.5 L37.8,44.5 L37.8,44.5 L37.8,44.5 L37.8,44.5 L37.8,44.5 L37.8,44.5 L37.8,44.5 L37.8,44.5 L37.8,44.5 L37.8,44.5 L37.8,44.5 L37.8,44.5 L37.8,44.5 Z"/>
  <path fill="white" d="M26.4,52.0 L26.4,52.0 L26.4,52.0 L26.4,52.0 L26.4,52.0 L26.4,51.9 L26.4,51.9 L26.4,51.9 L26.4,51.9 L26.4,51.9 L26.4,51.9 L26.4,51.9 L26.4,51.9 L26.4,51.9 L26.4,51.9 L26.4,52.0 L26.4,52.0 Z"/>
  <path fill="white" d="M25.9,51.9 L25.9,51.9 L25.9,51.9 L25.9,51.8 L25.9,51.8 L26.0,51.8 L26.0,51.8 L26.0,51.8 L26.0,51.8 L26.0,51.8 L26.0,51.8 L26.0,51.8 L25.9,51.9 L25.9,51.9 Z"/>
  <path fill="white" d="M26.6,51.8 L26.6,51.8 L26.6,51.8 L26.6,51.8 L26.6,51.8 L26.6,51.8 L26.6,51.8 L26.6,51.8 L26.6,51.9 L26.5,51.9 L26.5,51.8 L26.5,51.8 L26.5,51.8 L26.5,51.7 L26.5,51.7 L26.6,51.7 L26.6,51.7 L26.6,51.7 L26.6,51.8 Z"/>
  <path fill="white" d="M26.9,50.0 L27.7,51.1 L27.7,51.1 L27.8,50.9 L28.9,50.9 L28.9,51.0 L29.5,51.4 L29.7,51.4 L29.9,51.6 L29.7,52.2 L28.3,51.6 L26.2,51.7 L25.2,50.8 L25.5,50.3 L25.7,50.3 L25.8,50.4 L25.8,50.5 L25.9,50.5 L26.9,49.8 L26.9,50.0 Z"/>
  <path fill="white" d="M14.8,48.1 L14.7,48.1 L14.8,48.7 L14.8,48.8 L14.9,48.8 L14.9,48.9 L15.2,49.1 L15.3,49.3 L15.5,49.5 L15.5,49.5 L15.6,49.6 L15.6,49.7 L15.6,49.7 L15.7,49.9 L16.2,50.1 L16.2,50.2 L16.2,50.2 L16.2,50.2 L16.0,50.3 L15.8,50.3 L15.8,50.3 L15.8,50.3 L15.8,50.3 L15.3,50.1 L14.9,50.0 L14.5,50.0 L14.5,50.0 L14.5,50.0 L14.4,50.0 L14.4,50.0 L14.1,49.8 L13.8,49.7 L13.9,49.5 L13.9,49.4 L13.7,49.1 L13.4,48.5 L13.4,48.4 L13.3,48.2 L13.3,48.2 L13.3,48.2 L13.3,48.2 L13.2,48.2 L13.1,48.3 L13.1,48.3 L13.1,48.3 L13.1,48.3 L13.1,48.2 L13.0,48.2 L13.0,48.2 L13.0,48.2 L13.0,48.1 L13.0,48.1 L13.1,48.0 L13.1,48.0 L13.1,48.0 L13.6,48.0 L13.6,48.0 L13.6,48.0 L13.6,48.0 L13.9,48.1 L14.3,48.1 L14.6,48.1 L14.7,48.1 L14.8,48.0 L14.8,48.0 L14.8,48.0 L14.8,48.1 L14.8,48.1 L14.8,48.1 L14.8,48.1 Z"/>
  <path fill="white" d="M27.8,48.3 L27.8,48.3 L27.8,48.3 L27.9,48.3 L27.9,48.3 L27.9,48.3 L27.9,48.3 L27.9,48.3 L27.9,48.3 L27.9,48.3 L27.9,48.3 L27.8,48.3 L27.8,48.3 L27.8,48.3 L27.8,48.3 Z"/>
  <path fill="white" d="M32.7,48.3 L32.7,48.3 L32.6,48.2 L32.6,48.2 L32.6,48.2 L32.6,48.2 L32.6,48.2 L32.6,48.2 L32.6,48.1 L32.6,48.1 L32.7,48.2 L32.7,48.2 L32.7,48.2 L32.7,48.2 L32.7,48.3 Z"/>
  <path fill="white" d="M32.2,48.3 L32.2,48.3 L32.2,48.3 L32.2,48.3 L32.1,48.2 L32.1,48.2 L32.0,48.2 L32.0,48.1 L31.9,48.0 L31.9,48.0 L31.9,48.0 L32.0,48.0 L32.0,48.0 L32.0,48.1 L32.1,48.1 L32.2,48.3 L32.2,48.3 Z"/>
  <path fill="white" d="M28.1,46.6 L28.1,46.6 L28.2,46.6 L28.2,46.6 L28.4,47.1 L28.4,47.1 L28.5,47.3 L28.5,47.4 L28.7,47.7 L28.8,47.7 L29.0,47.9 L29.0,47.9 L29.1,48.0 L29.1,48.0 L29.1,48.0 L29.0,48.2 L29.0,48.2 L29.0,48.2 L28.3,48.4 L28.1,48.3 L28.1,48.3 L27.9,48.3 L27.9,48.3 L27.8,48.2 L27.8,48.2 L27.7,48.1 L27.6,48.0 L27.6,47.9 L27.6,47.9 L27.6,47.9 L27.5,47.7 L27.5,47.6 L27.4,47.6 L27.4,47.6 L27.4,47.6 L27.5,47.3 L27.7,47.2 L28.0,46.9 L28.0,46.9 L28.0,46.8 L28.0,46.7 L28.1,46.6 L28.1,46.6 L28.1,46.6 Z"/>
  <path fill="white" d="M34.2,54.4 L34.2,54.4 L34.2,54.4 L34.2,54.3 L34.2,54.3 L34.2,54.3 L34.2,54.4 L34.2,54.4 Z"/>
  <path fill="white" d="M34.9,54.0 L34.9,54.0 L34.9,54.0 L34.9,54.0 L35.0,54.0 L35.0,54.1 L35.0,54.1 L34.9,54.2 L34.9,54.2 L34.9,54.2 L34.8,54.3 L34.7,54.3 L34.7,54.3 L34.7,54.3 L34.7,54.3 L34.6,54.3 L34.6,54.3 L34.6,54.3 L34.6,54.1 L34.6,54.1 L34.6,54.0 L34.6,54.0 L34.6,54.0 L34.6,54.0 L34.7,54.0 L34.8,54.0 L34.8,54.0 L34.9,54.0 L34.9,54.0 Z"/>
  <path fill="white" d="M34.6,53.6 L34.6,53.6 L34.6,53.6 L34.5,53.5 L34.3,53.4 L34.2,53.3 L34.1,53.1 L34.2,53.3 L34.6,53.5 L34.6,53.5 L34.6,53.5 L34.6,53.5 L34.6,53.6 L34.6,53.6 L34.6,53.6 L34.6,53.6 L34.6,53.6 Z"/>
  <path fill="white" d="M33.9,52.7 L33.8,52.7 L33.7,52.8 L33.7,52.8 L33.7,52.8 L33.7,52.8 L33.7,52.8 L33.6,52.9 L33.7,53.1 L33.7,53.1 L33.8,53.2 L33.8,53.3 L33.9,53.8 L33.9,53.9 L33.8,54.0 L33.8,54.0 L33.8,54.1 L33.8,54.1 L33.8,54.2 L33.8,54.4 L33.9,54.6 L33.9,54.8 L34.0,54.8 L33.9,54.9 L33.9,55.1 L33.7,55.3 L33.7,55.3 L33.7,55.3 L33.6,55.2 L33.6,55.2 L33.6,55.1 L33.4,54.3 L33.3,54.1 L33.3,54.0 L33.3,53.9 L33.3,53.9 L33.3,53.8 L33.3,53.7 L33.3,53.6 L33.3,53.5 L33.2,53.5 L33.2,53.4 L33.2,53.3 L33.1,53.3 L33.1,53.2 L33.0,53.2 L32.9,53.1 L32.9,53.1 L32.8,53.0 L32.8,53.0 L32.8,52.9 L32.9,52.8 L32.9,52.8 L32.9,52.7 L33.0,52.7 L33.0,52.7 L33.1,52.7 L33.1,52.7 L33.3,52.7 L33.3,52.7 L33.4,52.7 L33.6,52.6 L33.7,52.6 L33.8,52.5 L33.9,52.5 L34.1,52.3 L34.1,52.4 L34.1,52.6 L33.9,52.7 Z"/>
  <path fill="white" d="M9.4,104.3 L10.6,104.8 L11.7,105.3 L11.8,105.2 L12.3,105.0 L13.3,105.9 L14.4,107.4 L13.7,108.9 L11.3,109.3 L10.6,108.7 L10.2,107.9 L10.0,107.8 L9.5,107.8 L9.5,107.5 L8.8,106.6 L8.5,106.6 L8.3,104.9 L9.4,104.3 Z"/>
  <path fill="white" d="M36.2,47.1 L36.1,47.1 L36.0,47.1 L35.9,47.1 L35.9,47.1 L35.9,47.1 L35.9,47.1 L35.8,47.1 L35.8,47.1 L35.8,47.1 L35.8,47.1 L35.8,47.1 L35.8,47.1 L35.9,47.1 L36.0,47.1 L36.1,47.1 L36.1,47.1 L36.1,47.1 L36.2,47.1 L36.2,47.1 L36.2,47.1 Z"/>
  <path fill="white" d="M35.8,47.0 L35.8,47.0 L35.7,47.0 L35.7,47.0 L35.7,47.0 L35.8,47.0 L35.8,47.0 L35.8,47.0 L35.8,47.0 Z"/>
  <path fill="white" d="M34.8,60.8 L34.8,60.8 L34.8,60.8 L34.8,60.8 L34.8,60.8 L34.8,60.8 L34.8,60.8 L34.8,60.8 Z"/>
  <path fill="white" d="M72.6,37.3 L72.7,37.3 L72.7,37.3 L72.7,37.3 L72.7,37.3 L72.7,37.3 L72.7,37.3 L72.8,37.5 L72.7,37.5 L72.7,37.5 L72.6,37.5 L72.6,37.5 L72.6,37.5 L72.6,37.5 L72.6,37.4 L72.6,37.4 L72.6,37.4 L72.6,37.3 L72.6,37.3 Z"/>
  <path fill="white" d="M69.9,12.5 L70.0,12.6 L70.2,12.7 L70.6,12.8 L70.6,12.8 L70.6,12.8 L70.6,12.8 L70.7,12.8 L70.7,12.8 L70.8,12.8 L70.8,12.8 L70.8,12.8 L70.8,12.8 L70.9,13.0 L70.9,13.0 L70.9,13.0 L70.9,13.0 L70.9,13.1 L70.6,13.3 L70.2,13.7 L70.2,13.7 L70.2,13.7 L69.6,13.9 L69.4,13.9 L68.9,13.9 L68.8,13.9 L68.8,13.9 L68.7,13.9 L68.6,13.8 L68.6,13.8 L68.6,13.8 L68.6,13.8 L68.9,12.9 L68.9,12.9 L68.9,12.9 L68.9,12.9 L69.5,12.6 L69.5,12.6 L69.7,12.5 L69.9,12.5 L69.9,12.5 Z"/>
  <path fill="white" d="M152.2,21.4 L150.3,20.7 L150.3,20.7 L149.8,20.3 L149.7,20.2 L149.8,20.0 L150.3,19.2 L152.2,19.4 L152.5,19.3 L153.1,19.2 L153.4,19.8 L153.5,20.4 L153.3,20.7 L153.3,21.3 L153.4,21.4 L153.4,21.4 L152.2,21.4 Z"/>
  <path fill="white" d="M156.7,28.1 L156.7,28.1 L156.7,28.1 L156.7,28.1 L156.7,28.1 L156.7,28.1 L156.7,28.1 L156.7,28.1 L156.7,28.1 L156.7,28.1 L156.7,28.1 L156.7,28.1 L156.7,28.1 L156.7,28.1 L156.8,28.1 L156.8,28.1 L156.7,28.1 L156.7,28.1 Z"/>
  <path fill="white" d="M158.0,27.5 L159.7,28.6 L159.4,29.7 L158.6,29.6 L158.5,29.5 L157.8,29.0 L157.5,29.0 L157.3,28.9 L156.7,27.7 L157.5,27.2 L157.5,27.0 L157.6,26.6 L157.8,26.5 L158.2,26.9 L157.9,27.2 L158.0,27.5 Z"/>
  <path fill="white" d="M157.9,22.2 L158.0,23.1 L157.9,23.3 L157.9,23.7 L158.0,23.8 L158.3,24.0 L158.4,23.9 L158.6,23.9 L158.8,24.1 L158.8,24.3 L158.2,24.4 L158.0,24.3 L157.9,24.3 L157.6,24.4 L157.5,24.6 L157.8,25.5 L157.9,25.5 L157.9,25.6 L157.6,26.2 L157.0,26.0 L156.5,25.2 L156.4,25.1 L155.8,25.1 L155.4,24.9 L154.7,23.7 L155.0,23.0 L155.1,22.6 L156.2,22.2 L156.3,22.2 L156.9,22.3 L157.8,22.1 L157.9,22.2 Z"/>
  <path fill="white" d="M127.8,21.7 L127.6,21.7 L127.6,21.7 L127.6,21.7 L127.5,21.7 L127.4,21.7 L127.4,21.7 L127.4,21.7 L127.3,21.6 L127.3,21.6 L127.3,21.6 L127.3,21.6 L127.3,21.6 L127.2,21.5 L127.2,21.4 L127.2,21.4 L127.2,21.3 L127.2,21.3 L127.1,21.2 L127.1,21.1 L127.2,21.0 L127.2,20.9 L127.2,20.9 L127.2,20.8 L127.4,20.7 L127.4,20.7 L127.4,20.7 L127.5,20.7 L127.5,20.6 L127.6,20.6 L127.6,20.6 L127.6,20.6 L128.1,20.6 L128.2,20.6 L128.2,20.6 L128.2,20.6 L128.2,20.6 L128.3,20.6 L128.3,20.6 L128.3,20.6 L128.4,20.6 L128.4,20.7 L128.4,20.7 L128.4,20.7 L128.5,20.8 L128.5,20.8 L128.5,20.8 L128.5,20.8 L128.5,20.8 L128.5,20.9 L128.5,21.0 L128.4,21.3 L128.3,21.4 L128.3,21.5 L128.3,21.5 L128.2,21.7 L128.2,21.7 L128.1,21.7 L128.1,21.7 L128.1,21.7 L128.1,21.7 L128.0,21.7 L128.0,21.7 L127.9,21.7 L127.8,21.7 L127.8,21.7 Z"/>
  <path fill="white" d="M139.4,20.4 L139.5,20.3 L139.6,20.3 L139.7,20.4 L139.7,20.5 L139.3,20.6 L139.2,20.6 L139.2,20.5 L138.8,20.4 L138.1,20.4 L137.8,20.4 L137.1,19.2 L138.1,19.1 L139.1,19.6 L139.1,19.8 L139.0,19.8 L139.0,20.2 L139.2,20.3 L139.4,20.4 Z"/>
  <path fill="white" d="M162.9,17.2 L162.8,17.2 L162.8,17.2 L162.8,17.2 L162.8,17.2 L162.8,17.2 L162.9,17.2 L162.9,17.2 L162.9,17.2 L162.9,17.2 L162.9,17.2 L162.9,17.2 L162.9,17.2 Z"/>
  <path fill="white" d="M165.0,16.7 L165.0,16.7 L165.0,16.7 L165.0,16.7 L165.0,16.6 L165.0,16.6 L165.0,16.6 L165.0,16.6 L165.0,16.6 L165.0,16.6 L165.0,16.7 L165.0,16.7 Z"/>
  <path fill="white" d="M165.2,16.5 L165.2,16.5 L165.2,16.5 L165.2,16.5 L165.2,16.5 L165.2,16.5 L165.2,16.5 L165.2,16.5 L165.2,16.5 L165.3,16.5 L165.3,16.5 L165.2,16.5 Z"/>
  <path fill="white" d="M164.6,16.5 L164.5,16.5 L164.5,16.4 L164.5,16.4 L164.5,16.4 L164.6,16.4 L164.6,16.4 L164.6,16.4 L164.6,16.4 L164.6,16.4 L164.6,16.5 L164.6,16.5 L164.6,16.5 L164.6,16.5 L164.6,16.5 Z"/>
  <path fill="white" d="M165.4,16.5 L165.4,16.5 L165.3,16.5 L165.3,16.4 L165.3,16.4 L165.3,16.4 L165.3,16.4 L165.3,16.4 L165.3,16.4 L165.4,16.4 L165.4,16.4 L165.4,16.4 L165.4,16.4 L165.4,16.4 L165.4,16.4 L165.5,16.4 L165.5,16.5 L165.5,16.5 L165.4,16.5 L165.4,16.5 L165.4,16.5 Z"/>
  <path fill="white" d="M163.0,16.1 L163.0,16.1 L163.0,16.1 L162.9,16.1 L162.9,16.1 L162.9,16.1 L162.9,16.1 L162.9,16.1 L162.9,16.0 L162.9,16.0 L162.9,16.1 L163.0,16.1 Z"/>
  <path fill="white" d="M162.7,17.1 L162.6,17.1 L162.6,17.1 L162.5,17.1 L162.5,17.1 L162.5,17.0 L162.5,17.0 L162.5,16.9 L162.6,16.5 L162.6,16.5 L162.7,16.4 L162.8,16.2 L163.0,16.1 L163.0,16.1 L163.2,16.0 L163.2,16.0 L163.2,16.0 L163.2,16.0 L163.2,16.0 L163.4,16.1 L163.4,16.1 L163.5,16.1 L163.6,16.2 L163.6,16.2 L163.6,16.4 L163.6,16.6 L163.5,16.8 L163.5,16.8 L163.5,16.8 L163.4,16.9 L163.4,16.9 L163.3,17.0 L162.7,17.1 Z"/>
  <path fill="white" d="M165.1,15.2 L165.1,15.2 L165.1,15.2 L165.1,15.2 L165.1,15.2 L165.1,15.2 L165.1,15.2 L165.1,15.2 L165.1,15.2 L165.1,15.2 L165.2,15.2 L165.1,15.2 Z"/>
  <path fill="white" d="M165.6,15.4 L165.6,15.4 L165.5,15.4 L165.2,15.3 L165.2,15.3 L165.2,15.3 L165.2,15.2 L165.4,15.1 L165.5,15.1 L165.6,15.2 L165.6,15.2 L165.6,15.3 L165.6,15.3 L165.6,15.3 L165.6,15.4 Z"/>
  <path fill="white" d="M170.4,10.0 L170.3,10.0 L170.3,10.0 L170.3,10.0 L170.2,9.9 L170.2,9.9 L169.4,9.6 L169.4,9.6 L169.4,9.6 L169.1,9.2 L169.0,9.0 L169.0,9.0 L169.0,9.0 L169.1,8.8 L169.1,8.8 L169.1,8.8 L169.1,8.8 L169.2,8.8 L169.3,8.8 L169.4,8.7 L169.5,8.7 L169.5,8.7 L169.6,8.7 L169.6,8.7 L170.0,8.4 L170.2,8.2 L170.3,8.1 L170.3,8.1 L170.4,8.0 L170.4,8.0 L170.4,8.0 L170.5,8.0 L170.6,8.0 L170.6,8.0 L170.7,8.0 L170.7,8.0 L170.7,8.0 L170.7,8.0 L171.1,8.1 L171.2,8.1 L171.7,8.3 L171.7,8.4 L171.8,8.4 L171.8,8.4 L171.8,8.4 L171.8,8.4 L171.8,8.5 L171.8,8.5 L171.8,8.5 L171.7,8.6 L171.7,8.6 L171.7,8.6 L171.7,8.6 L171.7,8.6 L171.6,8.7 L171.5,8.8 L171.2,9.1 L171.2,9.1 L171.2,9.1 L171.2,9.2 L171.1,9.3 L171.1,9.3 L171.1,9.3 L171.1,9.3 L171.1,9.4 L171.1,9.4 L171.1,9.5 L171.0,9.7 L170.9,9.7 L170.4,10.0 L170.4,10.0 L170.4,10.0 L170.4,10.0 Z"/>
  <path fill="white" d="M174.6,54.9 L174.6,55.0 L174.7,55.0 L174.7,55.0 L174.7,55.0 L174.6,55.0 L174.6,55.0 L174.6,55.0 L174.6,55.0 L174.6,55.0 L174.6,55.0 L174.6,55.0 L174.6,55.0 L174.6,54.9 L174.6,54.9 L174.6,54.9 L174.6,54.9 L174.6,54.9 L174.6,54.9 L174.6,54.9 L174.6,54.9 Z"/>
  <path fill="white" d="M39.3,169.2 L39.3,169.2 L39.2,169.2 L39.2,169.2 L39.2,169.2 L39.2,169.2 L39.2,169.1 L39.2,169.1 L39.3,169.2 L39.3,169.2 L39.3,169.2 Z"/>
  <path fill="white" d="M37.7,168.3 L37.7,168.3 L37.7,168.3 L37.7,168.3 L37.7,168.3 L37.7,168.3 L37.7,168.3 L37.7,168.3 L37.7,168.3 L37.7,168.3 L37.7,168.3 L37.7,168.3 L37.8,168.3 L37.8,168.3 L37.7,168.3 Z"/>
  <path fill="white" d="M37.9,168.3 L38.0,168.3 L38.1,168.3 L38.1,168.3 L38.2,168.3 L38.4,168.3 L38.5,168.3 L38.5,168.3 L38.5,168.3 L38.5,168.3 L38.6,168.3 L38.6,168.4 L38.9,168.5 L39.0,168.5 L39.1,168.5 L39.7,168.5 L40.1,168.6 L40.3,168.6 L40.6,168.6 L40.8,168.7 L40.8,168.7 L40.9,168.7 L41.0,168.7 L41.1,168.7 L41.2,168.6 L41.3,168.6 L41.3,168.6 L41.3,168.5 L41.5,168.4 L41.5,168.4 L42.4,168.6 L42.6,168.7 L42.8,168.8 L42.9,168.8 L42.9,168.9 L42.9,168.9 L42.8,168.9 L42.7,168.9 L42.5,169.2 L42.8,169.5 L42.9,169.6 L42.9,170.0 L42.9,170.0 L42.4,170.0 L42.2,170.0 L41.7,169.9 L41.6,169.8 L41.5,169.6 L41.5,169.6 L41.5,169.6 L41.5,169.6 L41.5,169.6 L41.4,169.6 L41.2,169.8 L41.2,169.8 L41.2,169.8 L41.3,169.8 L41.3,169.8 L41.3,169.8 L41.3,169.9 L41.3,169.9 L41.2,169.9 L40.8,169.8 L39.8,169.3 L39.7,169.1 L38.3,168.9 L38.2,168.9 L38.1,168.9 L37.9,168.9 L37.8,168.9 L37.3,168.8 L37.2,168.7 L37.2,168.7 L37.2,168.7 L37.2,168.6 L37.6,168.3 L37.7,168.3 L37.9,168.3 L37.9,168.3 Z"/>
  <path fill="white" d="M27.5,167.2 L27.5,167.2 L27.5,167.2 L27.5,167.2 L27.4,167.2 L27.4,167.2 L27.4,167.2 L27.5,167.1 L27.5,167.1 L27.5,167.1 L27.5,167.1 L27.6,167.1 L27.6,167.2 L27.6,167.2 L27.5,167.2 L27.5,167.2 Z"/>
  <path fill="white" d="M55.0,151.4 L55.0,151.4 L55.1,151.5 L55.1,151.5 L55.2,152.0 L55.3,152.1 L55.3,152.1 L55.3,152.2 L55.3,152.2 L55.2,152.2 L55.2,152.3 L55.2,152.4 L55.2,152.4 L55.1,152.4 L55.1,152.4 L55.1,152.4 L54.8,152.3 L54.1,152.4 L54.1,152.4 L54.0,152.3 L54.0,152.3 L53.9,152.3 L53.5,151.7 L53.5,151.7 L53.5,151.7 L53.6,151.6 L53.6,151.6 L53.6,151.6 L53.6,151.6 L53.6,151.6 L54.1,151.4 L54.1,151.3 L54.1,151.3 L54.2,151.3 L54.2,151.3 L54.3,151.4 L54.3,151.4 L54.4,151.4 L54.4,151.4 L54.4,151.4 L54.8,151.4 L54.9,151.4 L55.0,151.4 Z"/>
  <path fill="white" d="M103.3,91.0 L103.3,91.0 L103.3,91.0 L103.3,91.0 L103.3,91.0 L103.3,91.0 L103.3,91.0 L103.3,91.0 L103.3,91.0 L103.3,91.0 L103.3,91.0 L103.3,91.0 L103.3,91.0 L103.3,91.0 L103.3,91.0 L103.3,91.0 L103.3,91.0 L103.3,91.0 Z"/>
  <path fill="white" d="M168.0,69.2 L167.9,69.2 L167.9,69.2 L167.9,69.1 L167.9,69.1 L167.9,69.1 L168.0,69.2 L168.0,69.2 Z"/>
  <path fill="white" d="M168.0,69.1 L168.0,69.1 L168.0,69.1 L168.0,69.1 L168.0,69.0 L168.0,69.0 L168.0,69.0 L168.0,69.0 L168.1,69.1 L168.0,69.1 L168.0,69.1 Z"/>
  <path fill="white" d="M156.4,111.8 L156.4,111.8 L156.4,111.8 L156.4,111.8 L156.4,111.8 L156.4,111.8 L156.4,111.8 L156.4,111.8 L156.4,111.8 L156.4,111.8 L156.4,111.8 L156.4,111.8 L156.4,111.8 L156.4,111.8 L156.4,111.8 L156.4,111.8 L156.4,111.8 L156.4,111.8 L156.4,111.8 L156.4,111.8 L156.4,111.8 L156.4,111.8 L156.4,111.8 L156.4,111.8 L156.4,111.8 L156.4,111.8 L156.4,111.8 L156.4,111.8 Z"/>
  <path fill="white" d="M169.9,85.0 L169.8,85.0 L169.8,85.0 L169.8,84.9 L169.8,84.9 L169.9,84.9 L169.9,84.9 L169.9,84.9 L169.9,84.9 L169.9,84.9 L169.9,85.0 Z"/>
  <path fill="white" d="M172.0,84.4 L172.0,84.4 L172.0,84.4 L172.0,84.4 Z"/>
  <path fill="white" d="M165.0,106.7 L165.0,106.7 L164.9,106.6 L164.9,106.6 L164.9,106.6 L165.0,106.6 L165.0,106.6 L165.0,106.6 L165.0,106.7 L165.0,106.7 Z"/>
  <path fill="white" d="M165.6,109.3 L165.6,109.3 L165.6,109.3 L165.6,109.3 L165.6,109.3 L165.6,109.2 L165.6,109.2 L165.6,109.2 L165.6,109.2 L165.6,109.2 L165.6,109.2 L165.6,109.2 L165.6,109.2 L165.7,109.2 L165.7,109.2 L165.6,109.2 L165.6,109.3 L165.6,109.3 L165.6,109.3 Z"/>
  <path fill="white" d="M172.8,97.5 L172.8,97.5 L172.8,97.5 L172.8,97.5 L172.8,97.5 L172.8,97.5 L172.8,97.5 L172.8,97.5 L172.8,97.5 L172.8,97.5 L172.8,97.5 L172.8,97.5 L172.8,97.5 L172.8,97.5 L172.8,97.5 L172.8,97.5 L172.8,97.5 L172.8,97.5 L172.8,97.5 L172.8,97.5 L172.8,97.5 L172.8,97.5 L172.8,97.5 L172.8,97.5 L172.8,97.5 Z"/>
  <path fill="white" d="M166.9,112.0 L166.9,112.0 L166.8,111.9 L166.8,111.9 L166.8,111.9 L166.8,111.9 L166.9,111.7 L166.9,111.7 L167.0,111.7 L167.0,111.7 L167.0,111.7 L167.1,111.6 L167.1,111.6 L167.3,111.6 L167.3,111.6 L167.4,111.6 L167.4,111.6 L167.4,111.7 L167.4,111.7 L167.3,111.7 L167.3,111.7 L167.3,111.8 L166.9,112.0 Z"/>
</svg>
